<svg xmlns="http://www.w3.org/2000/svg" width="720" height="720" viewBox="0 0 720 720" fill="none">
<rect width="720" height="720" fill="black"/>
<path d="M95.5013 283.383L72.8589 338.756H118.952L95.5013 283.383ZM68.546 350.054C64.2332 360.376 55.6075 380.321 48.4644 408.636C45.9036 408.217 43.7472 407.381 39.5691 407.381C35.3911 407.381 32.8303 408.217 30 408.636C49.273 365.258 81.215 292.31 96.5795 252C98.3316 252.279 99.6794 252.697 101.971 252.697C103.857 252.697 105.07 252.418 106.688 252C123.265 299.005 171.111 407.799 171.515 408.636C167.876 407.938 164.103 407.381 158.711 407.381C153.051 407.381 149.008 408.078 144.829 408.636C137.282 381.856 128.387 362.329 122.996 350.054H68.546Z" fill="#FFFEF2"/>
<path d="M262.355 344.894C262.355 337.501 262.355 307.792 236.478 307.792C217.609 307.792 208.579 322.577 206.557 344.894H262.355ZM206.422 354.239C206.422 360.515 206.422 373.208 212.218 383.529C222.191 400.407 236.208 400.964 242.542 400.964C263.702 400.964 273.676 387.574 276.91 382.832L279.471 383.39C278.123 389.667 278.123 393.293 277.989 396.78C268.42 406.125 255.346 411.425 237.825 411.425C204.94 411.425 184.858 389.946 184.858 355.494C184.858 324.669 201.301 298.726 236.747 298.726C284.997 298.726 284.323 342.104 284.054 354.239H206.422Z" fill="#FFFEF2"/>
<path d="M366.402 324.669C365.593 321.321 364.245 315.742 358.046 311.279C353.463 307.931 347.533 307.513 344.029 307.513C330.821 307.513 323.947 314.626 323.947 324.25C323.947 337.222 336.751 341.964 344.298 343.917C363.572 349.078 379.071 353.262 379.071 375.718C379.071 392.735 367.615 411.704 337.56 411.704C320.039 411.704 307.909 404.033 305.618 402.359C308.448 396.919 310.2 387.435 310.604 384.506L313.165 383.808C314.648 387.574 316.804 393.711 324.891 398.593C330.282 401.941 335.942 402.778 340.66 402.778C351.981 402.778 362.493 397.198 362.493 384.366C362.493 371.674 355.081 369.163 332.438 361.492C323.139 358.284 307.774 351.449 307.774 331.782C307.774 319.09 315.322 298.447 345.242 298.447C360.202 298.447 368.828 303.189 373.815 305.839C371.658 311.697 370.176 316.997 369.502 324.669H366.402Z" fill="#FFFEF2"/>
<path d="M422.873 354.518C422.873 385.622 436.081 402.778 455.893 402.778C476.649 402.778 490.261 384.227 490.261 354.657C490.261 337.222 485.005 307.513 456.972 307.513C422.873 307.513 422.873 347.683 422.873 354.518ZM512.365 353.82C512.365 389.388 488.644 411.704 455.759 411.704C432.847 411.704 400.77 400.964 400.77 355.075C400.77 320.206 423.278 298.447 455.759 298.447C496.731 298.586 512.365 326.482 512.365 353.82Z" fill="#FFFEF2"/>
<path d="M568.297 321.182C563.984 326.761 559.402 334.851 559.402 357.028C559.402 376.695 563.714 384.087 568.297 389.667C573.823 396.641 581.235 400.685 591.209 400.685C622.073 400.685 622.073 362.886 622.073 355.633C622.073 321.879 606.439 309.605 592.422 309.605C580.831 309.466 573.284 314.626 568.297 321.182ZM595.117 411.983C574.766 411.983 563.31 400.406 559.806 391.201C559.806 426.35 559.536 446.714 560.884 467.217C557.65 466.38 554.819 465.962 549.563 465.962C544.172 465.962 541.342 466.38 537.972 467.217C539.724 438.206 540.398 408.775 540.398 379.763C540.398 359.399 539.994 331.922 539.32 299.423C542.285 300.12 545.789 300.678 549.967 300.678C553.876 300.678 557.515 299.981 560.615 299.423C559.806 311.697 559.806 315.045 559.806 319.787C563.31 313.929 572.61 298.307 596.6 298.307C618.164 298.307 644.58 314.626 644.58 354.518C644.445 389.806 623.42 411.983 595.117 411.983Z" fill="#FFFEF2"/>
<path d="M267.341 270.83H207.635V277.804H267.341V270.83Z" fill="#FFFEF2"/>
<path d="M673.153 388.83C673.153 391.061 673.153 393.014 673.153 394.967C674.905 394.967 678.948 394.967 678.948 391.759C678.948 388.83 675.848 388.83 673.153 388.83ZM683.531 404.172C682.992 404.172 682.587 404.033 681.913 404.033C681.374 404.033 680.835 404.172 679.892 404.172C677.196 400.128 675.04 397.896 673.557 396.083H673.018C673.018 398.593 673.018 400.546 673.288 404.172C672.614 404.172 672.344 404.033 671.536 404.033C670.727 404.033 670.457 404.172 670.053 404.172C670.188 402.359 670.323 400.406 670.323 395.525C670.323 391.34 670.188 389.388 670.188 387.574C671.401 387.574 672.209 387.574 674.096 387.574C678.005 387.574 682.048 387.574 682.048 391.48C682.048 394.967 678.409 395.525 676.792 395.664C677.87 397.198 682.722 402.778 683.665 403.893L683.531 404.172ZM675.848 384.227C669.379 384.227 664.392 389.527 664.392 396.222C664.392 403.057 669.244 408.217 675.848 408.217C682.452 408.217 687.304 403.057 687.304 396.222C687.439 389.667 682.722 384.227 675.848 384.227ZM675.848 381.577C683.8 381.577 690 388.132 690 396.222C690 404.451 683.665 410.867 675.848 410.867C668.031 410.867 661.697 404.451 661.697 396.222C661.832 387.993 668.166 381.577 675.848 381.577Z" fill="#FFFEF2"/>
</svg>